<svg viewBox="0 0 300 300" xmlns="http://www.w3.org/2000/svg"><g fill="#4b4b4b"><path d="m424.849 336.04c4.527-16.882 27.57-25.621 27.57-44.118 0-18.541-23.036-27.288-27.57-44.2-4.588-17.327 9.892-35.171 1.84-51.968-1.823-3.804-11.057-8.906-12.061-9.411-11.191-5.628-28.079-6.247-35.901-17.409-10.278-13.551-9.573-47.309-33.037-46.088-4.146.215-8.268.831-12.367 1.496-8.429 1.368-16.379 4.197-25.087 3.444-.558-.05-1.122-.11-1.652-.196-16.794-2.458-24.841-21.95-40.483-26.988-16.374-5.273-27.794 12.471-39.212 20.555-3.39 2.4-7.189 4.181-10.924 6-4.832 2.353-10.797.517-16.122-.215-11.01-1.514-25.098-7.863-35.846-1.625-16.27 9.343-11.215 34.14-24.401 45.955-13.823 12.387-50.429 10.815-48.487 36.14.351 4.569 1.202 9.088 1.96 13.607 1.4 8.352 4.634 17.998 2.327 26.703-4.534 16.912-27.571 25.659-27.571 44.2 0 18.497 23.044 27.235 27.571 44.118 4.591 17.321-9.907 35.183-1.836 51.968 1.821 3.788 11.155 8.935 12.09 9.405 11.667 5.863 27.216 6.415 35.953 17.333 9.719 12.931 8.456 41.199 27.402 45.609 10.167 2.367 20.94-2.179 30.852-3.541 5.32-.731 11.28-2.56 16.107-.209 12.051 5.869 11.317 6.804 21.598 15.291 6.399 5.282 13.54 12.284 22.602 12.284 19.375 0 27.904-25.2 46.431-28.016.522-.082 1.073-.138 1.624-.192 16.889-1.471 40.818 14.071 53.816-2.812 1.721-2.235 3.01-4.804 4.075-7.416 3.998-9.801 6.373-25.098 14.622-33.254 8.954-9.027 23.089-9.638 33.901-15.077.991-.498 10.231-5.605 12.054-9.405 8.058-16.794-6.425-34.642-1.838-51.968m-81.049 77.368c-56.978 39.396-136.131 32.839-186.068-15.372-16.069-15.442-23.269-27.694-33.068-47.522-30.725-62.168-3.382-142.074 51.782-180.16 56.996-39.4 136.129-32.838 186.074 15.372 16.063 15.44 23.264 27.691 33.065 47.512 30.734 62.158 3.37 142.089-51.785 180.17" transform="matrix(.780043 0 0 .780035 -52.9064 -77.6774)"/><circle cx="150" cy="150" r="88"/></g></svg>